{
  "accessors": [
    {
      "bufferView": 2,
      "componentType": 5126,
      "count": 839,
      "max": [
        0.9918048977851868,
        1.1729234457015991,
        0.9918049573898315
      ],
      "min": [
        -0.9918050765991211,
        -1.0270605087280273,
        -0.9918053150177002
      ],
      "type": "VEC3"
    },
    {
      "bufferView": 2,
      "byteOffset": 10068,
      "componentType": 5126,
      "count": 839,
      "max": [
        0.9998355507850647,
        1.0,
        0.9998355507850647
      ],
      "min": [
        -0.9998355507850647,
        -1.0,
        -0.9998355507850647
      ],
      "type": "VEC3"
    },
    {
      "bufferView": 1,
      "componentType": 5126,
      "count": 839,
      "max": [
        0.65625,
        1.0
      ],
      "min": [
        0.3437499701976776,
        -7.450580596923828e-08
      ],
      "type": "VEC2"
    },
    {
      "bufferView": 0,
      "componentType": 5125,
      "count": 4560,
      "type": "SCALAR"
    },
    {
      "bufferView": 2,
      "byteOffset": 20136,
      "componentType": 5126,
      "count": 168,
      "max": [
        1.0,
        1.0,
        1.0000001192092896
      ],
      "min": [
        -1.000000238418579,
        -0.7727227807044983,
        -1.0000004768371582
      ],
      "type": "VEC3"
    },
    {
      "bufferView": 2,
      "byteOffset": 22152,
      "componentType": 5126,
      "count": 168,
      "max": [
        0.9992731809616089,
        1.0,
        0.9992732405662537
      ],
      "min": [
        -0.9992731809616089,
        -1.0,
        -0.9992732405662537
      ],
      "type": "VEC3"
    },
    {
      "bufferView": 1,
      "byteOffset": 6712,
      "componentType": 5126,
      "count": 168,
      "max": [
        0.65625,
        1.0
      ],
      "min": [
        0.3437499701976776,
        -7.450580596923828e-08
      ],
      "type": "VEC2"
    },
    {
      "bufferView": 0,
      "byteOffset": 18240,
      "componentType": 5125,
      "count": 720,
      "type": "SCALAR"
    },
    {
      "bufferView": 2,
      "byteOffset": 24168,
      "componentType": 5126,
      "count": 168,
      "max": [
        1.0,
        -0.6376793384552002,
        1.0000001192092896
      ],
      "min": [
        -1.000000238418579,
        -1.1563135385513306,
        -1.0000004768371582
      ],
      "type": "VEC3"
    },
    {
      "bufferView": 2,
      "byteOffset": 26184,
      "componentType": 5126,
      "count": 168,
      "max": [
        0.977491021156311,
        1.0,
        0.977491021156311
      ],
      "min": [
        -0.9774910807609558,
        -1.0,
        -0.9774909615516663
      ],
      "type": "VEC3"
    },
    {
      "bufferView": 1,
      "byteOffset": 8056,
      "componentType": 5126,
      "count": 168,
      "max": [
        0.65625,
        1.0
      ],
      "min": [
        0.3437499701976776,
        -7.450580596923828e-08
      ],
      "type": "VEC2"
    },
    {
      "bufferView": 0,
      "byteOffset": 21120,
      "componentType": 5125,
      "count": 720,
      "type": "SCALAR"
    },
    {
      "bufferView": 2,
      "byteOffset": 28200,
      "componentType": 5126,
      "count": 357,
      "max": [
        1.0199147462844849,
        2.7994885444641113,
        1.0199148654937744
      ],
      "min": [
        -1.019914984703064,
        -1.0,
        -1.019915223121643
      ],
      "type": "VEC3"
    },
    {
      "bufferView": 2,
      "byteOffset": 32484,
      "componentType": 5126,
      "count": 357,
      "max": [
        0.9950113296508789,
        1.0,
        0.9950113296508789
      ],
      "min": [
        -0.9950113892555237,
        -1.0,
        -0.9950113296508789
      ],
      "type": "VEC3"
    },
    {
      "bufferView": 1,
      "byteOffset": 9400,
      "componentType": 5126,
      "count": 357,
      "max": [
        0.65625,
        1.0
      ],
      "min": [
        0.3437499701976776,
        -7.450580596923828e-08
      ],
      "type": "VEC2"
    },
    {
      "bufferView": 0,
      "byteOffset": 24000,
      "componentType": 5125,
      "count": 1800,
      "type": "SCALAR"
    },
    {
      "bufferView": 2,
      "byteOffset": 36768,
      "componentType": 5126,
      "count": 758,
      "max": [
        1.1458492279052734,
        1.0579028129577637,
        1.1433703899383545
      ],
      "min": [
        -1.1458497047424316,
        -1.0579018592834473,
        -1.1438069343566895
      ],
      "type": "VEC3"
    },
    {
      "bufferView": 2,
      "byteOffset": 45864,
      "componentType": 5126,
      "count": 758,
      "max": [
        0.9942724108695984,
        1.0,
        0.9923104047775269
      ],
      "min": [
        -0.9942723512649536,
        -1.0,
        -0.9923104643821716
      ],
      "type": "VEC3"
    },
    {
      "bufferView": 1,
      "byteOffset": 12256,
      "componentType": 5126,
      "count": 758,
      "max": [
        0.65625,
        0.9996917247772217
      ],
      "min": [
        0.3437499403953552,
        0.0003082007169723511
      ],
      "type": "VEC2"
    },
    {
      "bufferView": 0,
      "byteOffset": 31200,
      "componentType": 5125,
      "count": 2988,
      "type": "SCALAR"
    },
    {
      "bufferView": 2,
      "byteOffset": 54960,
      "componentType": 5126,
      "count": 1936,
      "max": [
        0.9990989565849304,
        1.0,
        0.9971277713775635
      ],
      "min": [
        -0.9990995526313782,
        -1.0,
        -0.9971283078193665
      ],
      "type": "VEC3"
    },
    {
      "bufferView": 2,
      "byteOffset": 78192,
      "componentType": 5126,
      "count": 1936,
      "max": [
        0.9991052746772766,
        1.0,
        0.9971337914466858
      ],
      "min": [
        -0.9991053342819214,
        -1.0,
        -0.9971337914466858
      ],
      "type": "VEC3"
    },
    {
      "bufferView": 1,
      "byteOffset": 18320,
      "componentType": 5126,
      "count": 1936,
      "max": [
        0.9999995827674866,
        1.0
      ],
      "min": [
        0.0,
        0.0
      ],
      "type": "VEC2"
    },
    {
      "bufferView": 0,
      "byteOffset": 43152,
      "componentType": 5125,
      "count": 10800,
      "type": "SCALAR"
    },
    {
      "bufferView": 2,
      "byteOffset": 101424,
      "componentType": 5126,
      "count": 439,
      "max": [
        0.9462558627128601,
        0.7839642763137817,
        1.208925724029541
      ],
      "min": [
        -1.178910732269287,
        -1.3792628049850464,
        -1.2089259624481201
      ],
      "type": "VEC3"
    },
    {
      "bufferView": 2,
      "byteOffset": 106692,
      "componentType": 5126,
      "count": 439,
      "max": [
        0.9999563694000244,
        0.999846339225769,
        0.9997280240058899
      ],
      "min": [
        -0.9999954700469971,
        -0.9999966621398926,
        -0.9997279644012451
      ],
      "type": "VEC3"
    },
    {
      "bufferView": 1,
      "byteOffset": 33808,
      "componentType": 5126,
      "count": 439,
      "max": [
        1.0000001192092896,
        1.0
      ],
      "min": [
        0.0,
        0.0
      ],
      "type": "VEC2"
    },
    {
      "bufferView": 0,
      "byteOffset": 86352,
      "componentType": 5125,
      "count": 2280,
      "type": "SCALAR"
    },
    {
      "bufferView": 2,
      "byteOffset": 111960,
      "componentType": 5126,
      "count": 439,
      "max": [
        0.9462558627128601,
        0.7839642763137817,
        1.208925724029541
      ],
      "min": [
        -1.178910732269287,
        -1.3792628049850464,
        -1.2089259624481201
      ],
      "type": "VEC3"
    },
    {
      "bufferView": 2,
      "byteOffset": 117228,
      "componentType": 5126,
      "count": 439,
      "max": [
        0.9999563694000244,
        0.999846339225769,
        0.9997280240058899
      ],
      "min": [
        -0.9999954700469971,
        -0.9999966621398926,
        -0.9997279644012451
      ],
      "type": "VEC3"
    },
    {
      "bufferView": 1,
      "byteOffset": 37320,
      "componentType": 5126,
      "count": 439,
      "max": [
        1.0000001192092896,
        1.0
      ],
      "min": [
        0.0,
        0.0
      ],
      "type": "VEC2"
    },
    {
      "bufferView": 0,
      "byteOffset": 95472,
      "componentType": 5125,
      "count": 2280,
      "type": "SCALAR"
    },
    {
      "bufferView": 2,
      "byteOffset": 122496,
      "componentType": 5126,
      "count": 439,
      "max": [
        1.0073456764221191,
        1.0205652713775635,
        1.0073457956314087
      ],
      "min": [
        -1.0073459148406982,
        -1.2827599048614502,
        -1.0073461532592773
      ],
      "type": "VEC3"
    },
    {
      "bufferView": 2,
      "byteOffset": 127764,
      "componentType": 5126,
      "count": 439,
      "max": [
        0.9992935657501221,
        1.0,
        0.9992935657501221
      ],
      "min": [
        -0.9992935657501221,
        -1.0,
        -0.9992935657501221
      ],
      "type": "VEC3"
    },
    {
      "bufferView": 1,
      "byteOffset": 40832,
      "componentType": 5126,
      "count": 439,
      "max": [
        1.0000001192092896,
        1.0
      ],
      "min": [
        0.0,
        0.0
      ],
      "type": "VEC2"
    },
    {
      "bufferView": 0,
      "byteOffset": 104592,
      "componentType": 5125,
      "count": 2280,
      "type": "SCALAR"
    }
  ],
  "asset": {
    "extras": {
      "author": "profmarau (https://sketchfab.com/profmarau)",
      "license": "CC-BY-4.0 (http://creativecommons.org/licenses/by/4.0/)",
      "source": "https://sketchfab.com/3d-models/nasa-rocket-ec11fc9814bd422a903b6c6367b58f6a",
      "title": "nasa rocket"
    },
    "generator": "Sketchfab-14.64.0",
    "version": "2.0"
  },
  "bufferViews": [
    {
      "buffer": 0,
      "byteLength": 113712,
      "name": "floatBufferViews",
      "target": 34963
    },
    {
      "buffer": 0,
      "byteLength": 44344,
      "byteOffset": 113712,
      "byteStride": 8,
      "name": "floatBufferViews",
      "target": 34962
    },
    {
      "buffer": 0,
      "byteLength": 133032,
      "byteOffset": 158056,
      "byteStride": 12,
      "name": "floatBufferViews",
      "target": 34962
    }
  ],
  "buffers": [
    {
      "byteLength": 291088,
      "uri": "scene.bin"
    }
  ],
  "extensionsUsed": [
    "KHR_materials_clearcoat",
    "KHR_materials_specular"
  ],
  "materials": [
    {
      "doubleSided": true,
      "extensions": {
        "KHR_materials_clearcoat": {
          "clearcoatFactor": 0.19961965598371345,
          "clearcoatRoughnessFactor": 0.04
        },
        "KHR_materials_specular": {
          "specularColorFactor": [
            1.0,
            1.0,
            1.0
          ],
          "specularFactor": 0.4373346661627921
        }
      },
      "name": "blinn1",
      "pbrMetallicRoughness": {
        "baseColorFactor": [
          1.0,
          1.0,
          0.0,
          1.0
        ],
        "metallicFactor": 0.0,
        "roughnessFactor": 0.9207483816249483
      }
    },
    {
      "doubleSided": true,
      "name": "blinn2",
      "pbrMetallicRoughness": {
        "baseColorFactor": [
          1.0,
          0.615383,
          0.0,
          1.0
        ],
        "metallicFactor": 0.0,
        "roughnessFactor": 0.9207483816249483
      }
    },
    {
      "doubleSided": true,
      "name": "blinn3",
      "pbrMetallicRoughness": {
        "baseColorFactor": [
          0.432,
          0.251856,
          0.404285,
          1.0
        ],
        "metallicFactor": 0.0,
        "roughnessFactor": 0.9207483816249483
      }
    },
    {
      "doubleSided": true,
      "extensions": {
        "KHR_materials_clearcoat": {
          "clearcoatFactor": 1.0,
          "clearcoatRoughnessFactor": 0.04
        }
      },
      "name": "blinn5",
      "pbrMetallicRoughness": {
        "baseColorFactor": [
          0.2559999999999999,
          0.2559999999999999,
          1.0,
          1.0
        ],
        "metallicFactor": 0.0,
        "roughnessFactor": 0.9207483816249483
      }
    },
    {
      "doubleSided": true,
      "name": "blinn6",
      "pbrMetallicRoughness": {
        "baseColorFactor": [
          0.432,
          0.251856,
          0.404285,
          1.0
        ],
        "metallicFactor": 0.0,
        "roughnessFactor": 0.9207483816249483
      }
    },
    {
      "doubleSided": true,
      "extensions": {
        "KHR_materials_clearcoat": {
          "clearcoatFactor": 1.0,
          "clearcoatRoughnessFactor": 0.04
        }
      },
      "name": "blinn7",
      "pbrMetallicRoughness": {
        "baseColorFactor": [
          0.052224,
          0.052224,
          0.204,
          1.0
        ],
        "metallicFactor": 0.0,
        "roughnessFactor": 0.9207483816249483
      }
    },
    {
      "doubleSided": true,
      "name": "blinn4",
      "pbrMetallicRoughness": {
        "baseColorFactor": [
          0.2559999999999999,
          0.2559999999999999,
          1.0,
          1.0
        ],
        "metallicFactor": 0.0,
        "roughnessFactor": 0.9207483816249483
      }
    },
    {
      "doubleSided": true,
      "name": "phongE1",
      "pbrMetallicRoughness": {
        "metallicFactor": 0.0,
        "roughnessFactor": 0.8942628736559436
      }
    }
  ],
  "meshes": [
    {
      "name": "pCylinder1_blinn1_0",
      "primitives": [
        {
          "attributes": {
            "NORMAL": 1,
            "POSITION": 0,
            "TEXCOORD_0": 2
          },
          "indices": 3,
          "material": 0,
          "mode": 4
        }
      ]
    },
    {
      "name": "pCylinder2_blinn2_0",
      "primitives": [
        {
          "attributes": {
            "NORMAL": 5,
            "POSITION": 4,
            "TEXCOORD_0": 6
          },
          "indices": 7,
          "material": 1,
          "mode": 4
        }
      ]
    },
    {
      "name": "pCylinder3_blinn3_0",
      "primitives": [
        {
          "attributes": {
            "NORMAL": 9,
            "POSITION": 8,
            "TEXCOORD_0": 10
          },
          "indices": 11,
          "material": 2,
          "mode": 4
        }
      ]
    },
    {
      "name": "pCylinder4_blinn5_0",
      "primitives": [
        {
          "attributes": {
            "NORMAL": 13,
            "POSITION": 12,
            "TEXCOORD_0": 14
          },
          "indices": 15,
          "material": 3,
          "mode": 4
        }
      ]
    },
    {
      "name": "pCylinder6_blinn6_0",
      "primitives": [
        {
          "attributes": {
            "NORMAL": 17,
            "POSITION": 16,
            "TEXCOORD_0": 18
          },
          "indices": 19,
          "material": 4,
          "mode": 4
        }
      ]
    },
    {
      "name": "pSphere3_blinn7_0",
      "primitives": [
        {
          "attributes": {
            "NORMAL": 21,
            "POSITION": 20,
            "TEXCOORD_0": 22
          },
          "indices": 23,
          "material": 5,
          "mode": 4
        }
      ]
    },
    {
      "name": "pSphere1_blinn4_0",
      "primitives": [
        {
          "attributes": {
            "NORMAL": 25,
            "POSITION": 24,
            "TEXCOORD_0": 26
          },
          "indices": 27,
          "material": 6,
          "mode": 4
        }
      ]
    },
    {
      "name": "pSphere2_blinn4_0",
      "primitives": [
        {
          "attributes": {
            "NORMAL": 29,
            "POSITION": 28,
            "TEXCOORD_0": 30
          },
          "indices": 31,
          "material": 6,
          "mode": 4
        }
      ]
    },
    {
      "name": "pSphere4_phongE1_0",
      "primitives": [
        {
          "attributes": {
            "NORMAL": 33,
            "POSITION": 32,
            "TEXCOORD_0": 34
          },
          "indices": 35,
          "material": 7,
          "mode": 4
        }
      ]
    }
  ],
  "nodes": [
    {
      "children": [
        1
      ],
      "matrix": [
        1.0,
        0.0,
        0.0,
        0.0,
        0.0,
        2.220446049250313e-16,
        -1.0,
        0.0,
        0.0,
        1.0,
        2.220446049250313e-16,
        0.0,
        0.0,
        0.0,
        0.0,
        1.0
      ],
      "name": "Sketchfab_model"
    },
    {
      "children": [
        2
      ],
      "matrix": [
        0.009999999776482582,
        0.0,
        0.0,
        0.0,
        0.0,
        0.0,
        0.009999999776482582,
        0.0,
        0.0,
        -0.009999999776482582,
        0.0,
        0.0,
        0.0,
        0.0,
        0.0,
        1.0
      ],
      "name": "ad8733818f0b43ba9009d289fc54684b.fbx"
    },
    {
      "children": [
        3,
        5,
        7,
        9,
        11,
        13,
        15,
        20
      ],
      "name": "RootNode"
    },
    {
      "children": [
        4
      ],
      "matrix": [
        2.217939615249634,
        0.0,
        0.0,
        0.0,
        0.0,
        2.2672271728515625,
        0.0,
        0.0,
        0.0,
        0.0,
        2.217939615249634,
        0.0,
        5.293955920339377e-23,
        6.2011637687683105,
        1.0587911840678754e-22,
        1.0
      ],
      "name": "pCylinder1"
    },
    {
      "mesh": 0,
      "name": "pCylinder1_blinn1_0"
    },
    {
      "children": [
        6
      ],
      "matrix": [
        1.404327154159546,
        0.0,
        0.0,
        0.0,
        0.0,
        0.34327998757362366,
        0.0,
        0.0,
        0.0,
        0.0,
        1.404327154159546,
        0.0,
        0.0,
        3.612125873565674,
        0.0,
        1.0
      ],
      "name": "pCylinder2"
    },
    {
      "mesh": 1,
      "name": "pCylinder2_blinn2_0"
    },
    {
      "children": [
        8
      ],
      "matrix": [
        1.0,
        0.0,
        0.0,
        0.0,
        0.0,
        1.0,
        0.0,
        0.0,
        0.0,
        0.0,
        1.0,
        0.0,
        0.0,
        4.067804336547852,
        0.0,
        1.0
      ],
      "name": "pCylinder3"
    },
    {
      "mesh": 2,
      "name": "pCylinder3_blinn3_0"
    },
    {
      "children": [
        10
      ],
      "matrix": [
        1.7322396039962769,
        0.0,
        0.0,
        0.0,
        0.0,
        0.5196718573570251,
        0.0,
        0.0,
        0.0,
        0.0,
        1.7322396039962769,
        0.0,
        8.728977007876892e-08,
        9.200662612915039,
        1.309346515654397e-07,
        1.0
      ],
      "name": "pCylinder4"
    },
    {
      "mesh": 3,
      "name": "pCylinder4_blinn5_0"
    },
    {
      "children": [
        12
      ],
      "matrix": [
        1.2845022678375244,
        0.0,
        0.0,
        0.0,
        0.0,
        -0.009691245984266657,
        0.38946144970296054,
        0.0,
        0.0,
        -1.2841047711327753,
        -0.03195329143901034,
        0.0,
        0.0,
        7.034071445465088,
        -1.9697949886322021,
        1.0
      ],
      "name": "pCylinder6"
    },
    {
      "mesh": 4,
      "name": "pCylinder6_blinn6_0"
    },
    {
      "children": [
        14
      ],
      "matrix": [
        1.1760584115982056,
        0.0,
        0.0,
        0.0,
        0.0,
        -0.00959964225301785,
        0.3931533125665514,
        0.0,
        0.0,
        -1.1757079899108955,
        -0.028707315279834514,
        0.0,
        0.0,
        7.028672218322754,
        -2.307694435119629,
        1.0
      ],
      "name": "pSphere3"
    },
    {
      "mesh": 5,
      "name": "pSphere3_blinn7_0"
    },
    {
      "children": [
        16,
        18
      ],
      "name": "group1"
    },
    {
      "children": [
        17
      ],
      "matrix": [
        2.220446049250313e-16,
        1.0,
        0.0,
        0.0,
        -1.0,
        2.220446049250313e-16,
        0.0,
        0.0,
        0.0,
        0.0,
        0.20682108402252197,
        0.0,
        2.0212061405181885,
        5.148587703704834,
        0.0,
        1.0
      ],
      "name": "pSphere1"
    },
    {
      "mesh": 6,
      "name": "pSphere1_blinn4_0"
    },
    {
      "children": [
        19
      ],
      "matrix": [
        2.220446049250313e-16,
        1.0,
        1.232595164407831e-32,
        0.0,
        1.0,
        -2.220446049250313e-16,
        1.224646799147353e-16,
        0.0,
        2.532827785443673e-17,
        -2.549266680637463e-33,
        -0.20682108402252197,
        0.0,
        -2.003312110900879,
        5.148587703704834,
        0.0,
        1.0
      ],
      "name": "pSphere2"
    },
    {
      "mesh": 7,
      "name": "pSphere2_blinn4_0"
    },
    {
      "children": [
        21
      ],
      "matrix": [
        1.0,
        0.0,
        0.0,
        0.0,
        0.0,
        1.0,
        0.0,
        0.0,
        0.0,
        0.0,
        1.0,
        0.0,
        0.0,
        1.775431513786316,
        0.0,
        1.0
      ],
      "name": "pSphere4"
    },
    {
      "mesh": 8,
      "name": "pSphere4_phongE1_0"
    }
  ],
  "scene": 0,
  "scenes": [
    {
      "name": "Sketchfab_Scene",
      "nodes": [
        0
      ]
    }
  ]
}
